<svg xmlns="http://www.w3.org/2000/svg" xmlns:xlink="http://www.w3.org/1999/xlink" width="32" height="32" viewbox="0 0 256 256" version="1.0"><defs><linearGradient id="a"><stop offset="0" style="stop-color:#fff;stop-opacity:1"/><stop offset="1" style="stop-color:#fff;stop-opacity:0"/></linearGradient><linearGradient xlink:href="#a" id="b" x1="-344.153" x2="-395.849" y1="274.711" y2="425.4" gradientTransform="matrix(-.59146 0 0 .59146 210.022 142.232)" gradientUnits="userSpaceOnUse"/></defs><g transform="translate(-373.642 -318.344)"><rect width="235.008" height="234.99" x="-619.146" y="328.849" rx="35.488" ry="35.488" style="fill:#e15a00;fill-opacity:1;fill-rule:evenodd;stroke:none;stroke-width:.875;stroke-linecap:square;stroke-linejoin:miter;stroke-miterlimit:4;stroke-dasharray:.875,1.75;stroke-dashoffset:0;stroke-opacity:1" transform="scale(-1 1)"/><path d="M557.057 338.895h-110.83c-29.337 0-52.954 23.81-52.954 53.385v108.128c.95 23.086 4.602 8.491 11.555-17.075 8.08-29.713 34.396-55.683 66.444-75.146 24.462-14.855 51.841-24.341 101.68-25.243 28.265-.512 25.77-36.683-15.895-44.049z" style="opacity:.60747664;fill:url(#b);fill-opacity:1;fill-rule:evenodd;stroke:none;stroke-width:.875;stroke-linecap:square;stroke-linejoin:miter;stroke-miterlimit:4;stroke-dasharray:.875,1.75;stroke-dashoffset:0;stroke-opacity:1"/><path d="M385 200.643c0 13.215-11.033 23.928-24.643 23.928-13.61 0-24.643-10.713-24.643-23.928 0-13.216 11.033-23.929 24.643-23.929 13.61 0 24.643 10.713 24.643 23.929z" style="opacity:1;fill:#fff;fill-opacity:1;fill-rule:nonzero;stroke:none;stroke-width:12;stroke-linecap:round;stroke-miterlimit:4;stroke-dasharray:none;stroke-opacity:1" transform="matrix(.86996 0 0 .86996 135.156 330.529)"/><path d="m427.835 455.057-.073-30.273c64.706 3.375 100.619 49.673 101.5 101.94h-30.318c-.503-45.942-31.74-69.996-71.11-71.667z" style="fill:#fff;fill-opacity:1;fill-rule:evenodd;stroke:none;stroke-width:1px;stroke-linecap:butt;stroke-linejoin:miter;stroke-opacity:1"/><path d="m428.201 404.571-.878-30.757C526.75 378.43 580 450.582 580.67 526.724l-31.197-.44c1.365-48.704-34.665-120.267-121.273-121.713z" style="fill:#fff;fill-opacity:1;fill-rule:evenodd;stroke:none;stroke-width:1px;stroke-linecap:butt;stroke-linejoin:miter;stroke-opacity:1"/></g></svg>
